<?xml version="1.0" encoding="UTF-8"?>
<svg xmlns="http://www.w3.org/2000/svg" viewBox="0 0 1200 800" width="1200" height="800">
  <rect width="1200" height="800" fill="#FBF6EC"/>
  <defs>
    <marker id="ah" viewBox="0 0 10 10" refX="8" refY="5" markerWidth="8" markerHeight="8" orient="auto-start-reverse">
      <path d="M 0 1.2 L 9 5 L 0 8.8 Z" fill="#E0562B"/>
    </marker>
  </defs>
  
  <text x="48" y="64" fill="#2B2A33" font-family="Georgia, 'Times New Roman', serif" font-size="40" font-weight="600" text-anchor="start">Panel 1  ·  Burning: hot gas, some escapes</text>
  <g>
    <rect x="70" y="560" width="430" height="36" rx="10" fill="none" stroke="#2B2A33" stroke-width="4"/>
    <rect x="86" y="542" width="398" height="22" fill="#CFE7F4"/>
    <text x="250" y="630" fill="#2B2A33" font-family="ui-sans-serif, system-ui, sans-serif" font-size="26" text-anchor="middle">rim sealed in water</text>
    <rect x="230" y="470" width="70" height="78" rx="8" fill="#F7F1E4" stroke="#2B2A33" stroke-width="3"/>
    <rect x="260" y="448" width="8" height="26" fill="#2B2A33"/>
    <path d="M264 400 C286 418 282 446 264 448 C246 446 242 418 264 400 Z" fill="#E0562B"/>
    <path d="M150 250 L150 548 L390 548" fill="none" stroke="#2B2A33" stroke-width="5"/>
    <path d="M390 250 L390 548" fill="none" stroke="#2B2A33" stroke-width="5"/>
    <path d="M158 258 L382 258 L382 520 L158 520 Z" fill="#F6D2A8" opacity="0.55"/>
    <circle cx="297.3" cy="390.0" r="7" fill="#B7B1A6"/><circle cx="300.3" cy="405.8" r="7" fill="#B7B1A6"/><circle cx="284.7" cy="422.6" r="7" fill="#B7B1A6"/><circle cx="252.2" cy="429.5" r="7" fill="#B7B1A6"/><circle cx="215.1" cy="418.7" r="7" fill="#B7B1A6"/><circle cx="242.7" cy="390.0" r="7" fill="#B7B1A6"/><circle cx="239.7" cy="374.2" r="7" fill="#B7B1A6"/><circle cx="255.3" cy="357.4" r="7" fill="#B7B1A6"/><circle cx="287.8" cy="350.5" r="7" fill="#B7B1A6"/><circle cx="324.9" cy="361.3" r="7" fill="#B7B1A6"/>
    <line x1="264" y1="390" x2="200" y2="330" stroke="#E0562B" stroke-width="4" stroke-dasharray="2 8" stroke-linecap="round" marker-end="url(#ah)"/>
    <line x1="264" y1="400" x2="330" y2="340" stroke="#E0562B" stroke-width="4" stroke-dasharray="2 8" stroke-linecap="round" marker-end="url(#ah)"/>
    <line x1="168" y1="530" x2="96" y2="500" stroke="#E0562B" stroke-width="4" stroke-dasharray="10 8" marker-end="url(#ah)"/>
    <line x1="372" y1="530" x2="444" y2="500" stroke="#E0562B" stroke-width="4" stroke-dasharray="10 8" marker-end="url(#ah)"/>
    <circle cx="108" cy="512" r="10" fill="#CFE7F4" stroke="#E0562B" stroke-width="3"/>
    <circle cx="430" cy="512" r="10" fill="#CFE7F4" stroke="#E0562B" stroke-width="3"/>
    <text x="48" y="470" fill="#2B2A33" font-family="ui-sans-serif, system-ui, sans-serif" font-size="24" text-anchor="start">some escapes</text>
    <text x="48" y="498" fill="#2B2A33" font-family="ui-sans-serif, system-ui, sans-serif" font-size="24" text-anchor="start">under the rim</text>
  </g>
  <rect x="560" y="140" width="590" height="560" rx="28" fill="#fff" stroke="#2B2A33" stroke-width="3"/>
  <text x="855" y="190" fill="#2B2A33" font-family="Georgia, 'Times New Roman', serif" font-size="34" font-weight="600" text-anchor="middle">inside the glass</text>
  <circle cx="811.5" cy="390.0" r="11" fill="#C8C2B6"/><circle cx="810.5" cy="412.0" r="11" fill="#C8C2B6"/><circle cx="780.0" cy="429.5" r="11" fill="#C8C2B6"/><circle cx="732.9" cy="423.9" r="11" fill="#C8C2B6"/><circle cx="701.7" cy="390.0" r="11" fill="#C8C2B6"/><circle cx="757.7" cy="374.0" r="11" fill="#C8C2B6"/><circle cx="780.0" cy="358.9" r="11" fill="#C8C2B6"/><circle cx="818.8" cy="362.0" r="11" fill="#C8C2B6"/>
  <circle cx="1024.5" cy="430.0" r="8" fill="#8E8980"/><circle cx="1030.3" cy="440.5" r="8" fill="#8E8980"/><circle cx="1026.6" cy="454.0" r="8" fill="#8E8980"/><circle cx="1011.5" cy="466.4" r="8" fill="#8E8980"/><circle cx="986.4" cy="472.7" r="8" fill="#8E8980"/><circle cx="984.7" cy="443.8" r="8" fill="#8E8980"/><circle cx="969.7" cy="440.5" r="8" fill="#8E8980"/><circle cx="957.3" cy="430.0" r="8" fill="#8E8980"/><circle cx="953.3" cy="413.8" r="8" fill="#8E8980"/><circle cx="962.0" cy="395.7" r="8" fill="#8E8980"/><circle cx="994.5" cy="412.8" r="8" fill="#8E8980"/><circle cx="1007.5" cy="406.4" r="8" fill="#8E8980"/><circle cx="1026.6" cy="406.0" r="8" fill="#8E8980"/><circle cx="1046.7" cy="413.8" r="8" fill="#8E8980"/>
  <text x="700" y="300" fill="#2B2A33" font-family="ui-sans-serif, system-ui, sans-serif" font-size="28" text-anchor="start">hot gas: spread out</text>
  <text x="900" y="560" fill="#2B2A33" font-family="ui-sans-serif, system-ui, sans-serif" font-size="26" text-anchor="start">outside air, packed closer</text>
  <text x="855" y="640" fill="#2B2A33" font-family="ui-sans-serif, system-ui, sans-serif" font-size="28" text-anchor="middle">will go out, O₂ still left</text>

</svg>
