<?xml version="1.0" encoding="UTF-8"?>
<svg xmlns="http://www.w3.org/2000/svg" viewBox="0 0 1200 800" width="1200" height="800">
  <rect width="1200" height="800" fill="#FBF6EC"/>
  <defs>
    <marker id="ah" viewBox="0 0 10 10" refX="8" refY="5" markerWidth="8" markerHeight="8" orient="auto-start-reverse">
      <path d="M 0 1.2 L 9 5 L 0 8.8 Z" fill="#E0562B"/>
    </marker>
  </defs>
  
  <text x="48" y="64" fill="#2B2A33" font-family="Georgia, 'Times New Roman', serif" font-size="40" font-weight="600" text-anchor="start">Panel 3  ·  The chemistry is small</text>
  <text x="250" y="130" fill="#2B2A33" font-family="Georgia, 'Times New Roman', serif" font-size="32" font-weight="600" text-anchor="middle">air before</text>
  <text x="860" y="130" fill="#2B2A33" font-family="Georgia, 'Times New Roman', serif" font-size="32" font-weight="600" text-anchor="middle">if ALL O₂ burned</text>
  <circle cx="70" cy="170" r="12" fill="#C8C2B6" stroke="#2B2A33" stroke-width="2"/><circle cx="106" cy="170" r="12" fill="#C8C2B6" stroke="#2B2A33" stroke-width="2"/><circle cx="142" cy="170" r="12" fill="#C8C2B6" stroke="#2B2A33" stroke-width="2"/><circle cx="178" cy="170" r="12" fill="#C8C2B6" stroke="#2B2A33" stroke-width="2"/><circle cx="214" cy="170" r="12" fill="#C8C2B6" stroke="#2B2A33" stroke-width="2"/><circle cx="250" cy="170" r="12" fill="#C8C2B6" stroke="#2B2A33" stroke-width="2"/><circle cx="286" cy="170" r="12" fill="#C8C2B6" stroke="#2B2A33" stroke-width="2"/><circle cx="322" cy="170" r="12" fill="#C8C2B6" stroke="#2B2A33" stroke-width="2"/><circle cx="358" cy="170" r="12" fill="#C8C2B6" stroke="#2B2A33" stroke-width="2"/><circle cx="394" cy="170" r="12" fill="#C8C2B6" stroke="#2B2A33" stroke-width="2"/><circle cx="70" cy="206" r="12" fill="#C8C2B6" stroke="#2B2A33" stroke-width="2"/><circle cx="106" cy="206" r="12" fill="#C8C2B6" stroke="#2B2A33" stroke-width="2"/><circle cx="142" cy="206" r="12" fill="#C8C2B6" stroke="#2B2A33" stroke-width="2"/><circle cx="178" cy="206" r="12" fill="#C8C2B6" stroke="#2B2A33" stroke-width="2"/><circle cx="214" cy="206" r="12" fill="#C8C2B6" stroke="#2B2A33" stroke-width="2"/><circle cx="250" cy="206" r="12" fill="#C8C2B6" stroke="#2B2A33" stroke-width="2"/><circle cx="286" cy="206" r="12" fill="#C8C2B6" stroke="#2B2A33" stroke-width="2"/><circle cx="322" cy="206" r="12" fill="#C8C2B6" stroke="#2B2A33" stroke-width="2"/><circle cx="358" cy="206" r="12" fill="#C8C2B6" stroke="#2B2A33" stroke-width="2"/><circle cx="394" cy="206" r="12" fill="#C8C2B6" stroke="#2B2A33" stroke-width="2"/><circle cx="70" cy="242" r="12" fill="#C8C2B6" stroke="#2B2A33" stroke-width="2"/><circle cx="106" cy="242" r="12" fill="#C8C2B6" stroke="#2B2A33" stroke-width="2"/><circle cx="142" cy="242" r="12" fill="#C8C2B6" stroke="#2B2A33" stroke-width="2"/><circle cx="178" cy="242" r="12" fill="#C8C2B6" stroke="#2B2A33" stroke-width="2"/><circle cx="214" cy="242" r="12" fill="#C8C2B6" stroke="#2B2A33" stroke-width="2"/><circle cx="250" cy="242" r="12" fill="#C8C2B6" stroke="#2B2A33" stroke-width="2"/><circle cx="286" cy="242" r="12" fill="#C8C2B6" stroke="#2B2A33" stroke-width="2"/><circle cx="322" cy="242" r="12" fill="#C8C2B6" stroke="#2B2A33" stroke-width="2"/><circle cx="358" cy="242" r="12" fill="#C8C2B6" stroke="#2B2A33" stroke-width="2"/><circle cx="394" cy="242" r="12" fill="#C8C2B6" stroke="#2B2A33" stroke-width="2"/><circle cx="70" cy="278" r="12" fill="#C8C2B6" stroke="#2B2A33" stroke-width="2"/><circle cx="106" cy="278" r="12" fill="#C8C2B6" stroke="#2B2A33" stroke-width="2"/><circle cx="142" cy="278" r="12" fill="#C8C2B6" stroke="#2B2A33" stroke-width="2"/><circle cx="178" cy="278" r="12" fill="#C8C2B6" stroke="#2B2A33" stroke-width="2"/><circle cx="214" cy="278" r="12" fill="#C8C2B6" stroke="#2B2A33" stroke-width="2"/><circle cx="250" cy="278" r="12" fill="#C8C2B6" stroke="#2B2A33" stroke-width="2"/><circle cx="286" cy="278" r="12" fill="#C8C2B6" stroke="#2B2A33" stroke-width="2"/><circle cx="322" cy="278" r="12" fill="#C8C2B6" stroke="#2B2A33" stroke-width="2"/><circle cx="358" cy="278" r="12" fill="#C8C2B6" stroke="#2B2A33" stroke-width="2"/><circle cx="394" cy="278" r="12" fill="#C8C2B6" stroke="#2B2A33" stroke-width="2"/><circle cx="70" cy="314" r="12" fill="#C8C2B6" stroke="#2B2A33" stroke-width="2"/><circle cx="106" cy="314" r="12" fill="#C8C2B6" stroke="#2B2A33" stroke-width="2"/><circle cx="142" cy="314" r="12" fill="#C8C2B6" stroke="#2B2A33" stroke-width="2"/><circle cx="178" cy="314" r="12" fill="#C8C2B6" stroke="#2B2A33" stroke-width="2"/><circle cx="214" cy="314" r="12" fill="#C8C2B6" stroke="#2B2A33" stroke-width="2"/><circle cx="250" cy="314" r="12" fill="#C8C2B6" stroke="#2B2A33" stroke-width="2"/><circle cx="286" cy="314" r="12" fill="#C8C2B6" stroke="#2B2A33" stroke-width="2"/><circle cx="322" cy="314" r="12" fill="#C8C2B6" stroke="#2B2A33" stroke-width="2"/><circle cx="358" cy="314" r="12" fill="#C8C2B6" stroke="#2B2A33" stroke-width="2"/><circle cx="394" cy="314" r="12" fill="#C8C2B6" stroke="#2B2A33" stroke-width="2"/><circle cx="70" cy="350" r="12" fill="#C8C2B6" stroke="#2B2A33" stroke-width="2"/><circle cx="106" cy="350" r="12" fill="#C8C2B6" stroke="#2B2A33" stroke-width="2"/><circle cx="142" cy="350" r="12" fill="#C8C2B6" stroke="#2B2A33" stroke-width="2"/><circle cx="178" cy="350" r="12" fill="#C8C2B6" stroke="#2B2A33" stroke-width="2"/><circle cx="214" cy="350" r="12" fill="#C8C2B6" stroke="#2B2A33" stroke-width="2"/><circle cx="250" cy="350" r="12" fill="#C8C2B6" stroke="#2B2A33" stroke-width="2"/><circle cx="286" cy="350" r="12" fill="#C8C2B6" stroke="#2B2A33" stroke-width="2"/><circle cx="322" cy="350" r="12" fill="#C8C2B6" stroke="#2B2A33" stroke-width="2"/><circle cx="358" cy="350" r="12" fill="#C8C2B6" stroke="#2B2A33" stroke-width="2"/><circle cx="394" cy="350" r="12" fill="#C8C2B6" stroke="#2B2A33" stroke-width="2"/><circle cx="70" cy="386" r="12" fill="#C8C2B6" stroke="#2B2A33" stroke-width="2"/><circle cx="106" cy="386" r="12" fill="#C8C2B6" stroke="#2B2A33" stroke-width="2"/><circle cx="142" cy="386" r="12" fill="#C8C2B6" stroke="#2B2A33" stroke-width="2"/><circle cx="178" cy="386" r="12" fill="#C8C2B6" stroke="#2B2A33" stroke-width="2"/><circle cx="214" cy="386" r="12" fill="#C8C2B6" stroke="#2B2A33" stroke-width="2"/><circle cx="250" cy="386" r="12" fill="#C8C2B6" stroke="#2B2A33" stroke-width="2"/><circle cx="286" cy="386" r="12" fill="#C8C2B6" stroke="#2B2A33" stroke-width="2"/><circle cx="322" cy="386" r="12" fill="#C8C2B6" stroke="#2B2A33" stroke-width="2"/><circle cx="358" cy="386" r="12" fill="#C8C2B6" stroke="#2B2A33" stroke-width="2"/><circle cx="394" cy="386" r="12" fill="#C8C2B6" stroke="#2B2A33" stroke-width="2"/><circle cx="70" cy="422" r="12" fill="#C8C2B6" stroke="#2B2A33" stroke-width="2"/><circle cx="106" cy="422" r="12" fill="#C8C2B6" stroke="#2B2A33" stroke-width="2"/><circle cx="142" cy="422" r="12" fill="#C8C2B6" stroke="#2B2A33" stroke-width="2"/><circle cx="178" cy="422" r="12" fill="#C8C2B6" stroke="#2B2A33" stroke-width="2"/><circle cx="214" cy="422" r="12" fill="#C8C2B6" stroke="#2B2A33" stroke-width="2"/><circle cx="250" cy="422" r="12" fill="#C8C2B6" stroke="#2B2A33" stroke-width="2"/><circle cx="286" cy="422" r="12" fill="#C8C2B6" stroke="#2B2A33" stroke-width="2"/><circle cx="322" cy="422" r="12" fill="#C8C2B6" stroke="#2B2A33" stroke-width="2"/><circle cx="358" cy="422" r="12" fill="#7EB6D9" stroke="#2B2A33" stroke-width="2"/><circle cx="394" cy="422" r="12" fill="#7EB6D9" stroke="#2B2A33" stroke-width="2"/><circle cx="70" cy="458" r="12" fill="#7EB6D9" stroke="#2B2A33" stroke-width="2"/><circle cx="106" cy="458" r="12" fill="#7EB6D9" stroke="#2B2A33" stroke-width="2"/><circle cx="142" cy="458" r="12" fill="#7EB6D9" stroke="#2B2A33" stroke-width="2"/><circle cx="178" cy="458" r="12" fill="#7EB6D9" stroke="#2B2A33" stroke-width="2"/><circle cx="214" cy="458" r="12" fill="#7EB6D9" stroke="#2B2A33" stroke-width="2"/><circle cx="250" cy="458" r="12" fill="#7EB6D9" stroke="#2B2A33" stroke-width="2"/><circle cx="286" cy="458" r="12" fill="#7EB6D9" stroke="#2B2A33" stroke-width="2"/><circle cx="322" cy="458" r="12" fill="#7EB6D9" stroke="#2B2A33" stroke-width="2"/><circle cx="358" cy="458" r="12" fill="#7EB6D9" stroke="#2B2A33" stroke-width="2"/><circle cx="394" cy="458" r="12" fill="#7EB6D9" stroke="#2B2A33" stroke-width="2"/><circle cx="70" cy="494" r="12" fill="#7EB6D9" stroke="#2B2A33" stroke-width="2"/><circle cx="106" cy="494" r="12" fill="#7EB6D9" stroke="#2B2A33" stroke-width="2"/><circle cx="142" cy="494" r="12" fill="#7EB6D9" stroke="#2B2A33" stroke-width="2"/><circle cx="178" cy="494" r="12" fill="#7EB6D9" stroke="#2B2A33" stroke-width="2"/><circle cx="214" cy="494" r="12" fill="#7EB6D9" stroke="#2B2A33" stroke-width="2"/><circle cx="250" cy="494" r="12" fill="#7EB6D9" stroke="#2B2A33" stroke-width="2"/><circle cx="286" cy="494" r="12" fill="#7EB6D9" stroke="#2B2A33" stroke-width="2"/><circle cx="322" cy="494" r="12" fill="#7EB6D9" stroke="#2B2A33" stroke-width="2"/><circle cx="358" cy="494" r="12" fill="#7EB6D9" stroke="#2B2A33" stroke-width="2"/><circle cx="394" cy="494" r="12" fill="#C4A0D4" stroke="#2B2A33" stroke-width="2"/>
  <circle cx="680" cy="170" r="12" fill="#C8C2B6" stroke="#2B2A33" stroke-width="2"/><circle cx="716" cy="170" r="12" fill="#C8C2B6" stroke="#2B2A33" stroke-width="2"/><circle cx="752" cy="170" r="12" fill="#C8C2B6" stroke="#2B2A33" stroke-width="2"/><circle cx="788" cy="170" r="12" fill="#C8C2B6" stroke="#2B2A33" stroke-width="2"/><circle cx="824" cy="170" r="12" fill="#C8C2B6" stroke="#2B2A33" stroke-width="2"/><circle cx="860" cy="170" r="12" fill="#C8C2B6" stroke="#2B2A33" stroke-width="2"/><circle cx="896" cy="170" r="12" fill="#C8C2B6" stroke="#2B2A33" stroke-width="2"/><circle cx="932" cy="170" r="12" fill="#C8C2B6" stroke="#2B2A33" stroke-width="2"/><circle cx="968" cy="170" r="12" fill="#C8C2B6" stroke="#2B2A33" stroke-width="2"/><circle cx="1004" cy="170" r="12" fill="#C8C2B6" stroke="#2B2A33" stroke-width="2"/><circle cx="680" cy="206" r="12" fill="#C8C2B6" stroke="#2B2A33" stroke-width="2"/><circle cx="716" cy="206" r="12" fill="#C8C2B6" stroke="#2B2A33" stroke-width="2"/><circle cx="752" cy="206" r="12" fill="#C8C2B6" stroke="#2B2A33" stroke-width="2"/><circle cx="788" cy="206" r="12" fill="#C8C2B6" stroke="#2B2A33" stroke-width="2"/><circle cx="824" cy="206" r="12" fill="#C8C2B6" stroke="#2B2A33" stroke-width="2"/><circle cx="860" cy="206" r="12" fill="#C8C2B6" stroke="#2B2A33" stroke-width="2"/><circle cx="896" cy="206" r="12" fill="#C8C2B6" stroke="#2B2A33" stroke-width="2"/><circle cx="932" cy="206" r="12" fill="#C8C2B6" stroke="#2B2A33" stroke-width="2"/><circle cx="968" cy="206" r="12" fill="#C8C2B6" stroke="#2B2A33" stroke-width="2"/><circle cx="1004" cy="206" r="12" fill="#C8C2B6" stroke="#2B2A33" stroke-width="2"/><circle cx="680" cy="242" r="12" fill="#C8C2B6" stroke="#2B2A33" stroke-width="2"/><circle cx="716" cy="242" r="12" fill="#C8C2B6" stroke="#2B2A33" stroke-width="2"/><circle cx="752" cy="242" r="12" fill="#C8C2B6" stroke="#2B2A33" stroke-width="2"/><circle cx="788" cy="242" r="12" fill="#C8C2B6" stroke="#2B2A33" stroke-width="2"/><circle cx="824" cy="242" r="12" fill="#C8C2B6" stroke="#2B2A33" stroke-width="2"/><circle cx="860" cy="242" r="12" fill="#C8C2B6" stroke="#2B2A33" stroke-width="2"/><circle cx="896" cy="242" r="12" fill="#C8C2B6" stroke="#2B2A33" stroke-width="2"/><circle cx="932" cy="242" r="12" fill="#C8C2B6" stroke="#2B2A33" stroke-width="2"/><circle cx="968" cy="242" r="12" fill="#C8C2B6" stroke="#2B2A33" stroke-width="2"/><circle cx="1004" cy="242" r="12" fill="#C8C2B6" stroke="#2B2A33" stroke-width="2"/><circle cx="680" cy="278" r="12" fill="#C8C2B6" stroke="#2B2A33" stroke-width="2"/><circle cx="716" cy="278" r="12" fill="#C8C2B6" stroke="#2B2A33" stroke-width="2"/><circle cx="752" cy="278" r="12" fill="#C8C2B6" stroke="#2B2A33" stroke-width="2"/><circle cx="788" cy="278" r="12" fill="#C8C2B6" stroke="#2B2A33" stroke-width="2"/><circle cx="824" cy="278" r="12" fill="#C8C2B6" stroke="#2B2A33" stroke-width="2"/><circle cx="860" cy="278" r="12" fill="#C8C2B6" stroke="#2B2A33" stroke-width="2"/><circle cx="896" cy="278" r="12" fill="#C8C2B6" stroke="#2B2A33" stroke-width="2"/><circle cx="932" cy="278" r="12" fill="#C8C2B6" stroke="#2B2A33" stroke-width="2"/><circle cx="968" cy="278" r="12" fill="#C8C2B6" stroke="#2B2A33" stroke-width="2"/><circle cx="1004" cy="278" r="12" fill="#C8C2B6" stroke="#2B2A33" stroke-width="2"/><circle cx="680" cy="314" r="12" fill="#C8C2B6" stroke="#2B2A33" stroke-width="2"/><circle cx="716" cy="314" r="12" fill="#C8C2B6" stroke="#2B2A33" stroke-width="2"/><circle cx="752" cy="314" r="12" fill="#C8C2B6" stroke="#2B2A33" stroke-width="2"/><circle cx="788" cy="314" r="12" fill="#C8C2B6" stroke="#2B2A33" stroke-width="2"/><circle cx="824" cy="314" r="12" fill="#C8C2B6" stroke="#2B2A33" stroke-width="2"/><circle cx="860" cy="314" r="12" fill="#C8C2B6" stroke="#2B2A33" stroke-width="2"/><circle cx="896" cy="314" r="12" fill="#C8C2B6" stroke="#2B2A33" stroke-width="2"/><circle cx="932" cy="314" r="12" fill="#C8C2B6" stroke="#2B2A33" stroke-width="2"/><circle cx="968" cy="314" r="12" fill="#C8C2B6" stroke="#2B2A33" stroke-width="2"/><circle cx="1004" cy="314" r="12" fill="#C8C2B6" stroke="#2B2A33" stroke-width="2"/><circle cx="680" cy="350" r="12" fill="#C8C2B6" stroke="#2B2A33" stroke-width="2"/><circle cx="716" cy="350" r="12" fill="#C8C2B6" stroke="#2B2A33" stroke-width="2"/><circle cx="752" cy="350" r="12" fill="#C8C2B6" stroke="#2B2A33" stroke-width="2"/><circle cx="788" cy="350" r="12" fill="#C8C2B6" stroke="#2B2A33" stroke-width="2"/><circle cx="824" cy="350" r="12" fill="#C8C2B6" stroke="#2B2A33" stroke-width="2"/><circle cx="860" cy="350" r="12" fill="#C8C2B6" stroke="#2B2A33" stroke-width="2"/><circle cx="896" cy="350" r="12" fill="#C8C2B6" stroke="#2B2A33" stroke-width="2"/><circle cx="932" cy="350" r="12" fill="#C8C2B6" stroke="#2B2A33" stroke-width="2"/><circle cx="968" cy="350" r="12" fill="#C8C2B6" stroke="#2B2A33" stroke-width="2"/><circle cx="1004" cy="350" r="12" fill="#C8C2B6" stroke="#2B2A33" stroke-width="2"/><circle cx="680" cy="386" r="12" fill="#C8C2B6" stroke="#2B2A33" stroke-width="2"/><circle cx="716" cy="386" r="12" fill="#C8C2B6" stroke="#2B2A33" stroke-width="2"/><circle cx="752" cy="386" r="12" fill="#C8C2B6" stroke="#2B2A33" stroke-width="2"/><circle cx="788" cy="386" r="12" fill="#C8C2B6" stroke="#2B2A33" stroke-width="2"/><circle cx="824" cy="386" r="12" fill="#C8C2B6" stroke="#2B2A33" stroke-width="2"/><circle cx="860" cy="386" r="12" fill="#C8C2B6" stroke="#2B2A33" stroke-width="2"/><circle cx="896" cy="386" r="12" fill="#C8C2B6" stroke="#2B2A33" stroke-width="2"/><circle cx="932" cy="386" r="12" fill="#C8C2B6" stroke="#2B2A33" stroke-width="2"/><circle cx="968" cy="386" r="12" fill="#C8C2B6" stroke="#2B2A33" stroke-width="2"/><circle cx="1004" cy="386" r="12" fill="#C8C2B6" stroke="#2B2A33" stroke-width="2"/><circle cx="680" cy="422" r="12" fill="#C8C2B6" stroke="#2B2A33" stroke-width="2"/><circle cx="716" cy="422" r="12" fill="#C8C2B6" stroke="#2B2A33" stroke-width="2"/><circle cx="752" cy="422" r="12" fill="#C8C2B6" stroke="#2B2A33" stroke-width="2"/><circle cx="788" cy="422" r="12" fill="#C8C2B6" stroke="#2B2A33" stroke-width="2"/><circle cx="824" cy="422" r="12" fill="#C8C2B6" stroke="#2B2A33" stroke-width="2"/><circle cx="860" cy="422" r="12" fill="#C8C2B6" stroke="#2B2A33" stroke-width="2"/><circle cx="896" cy="422" r="12" fill="#C8C2B6" stroke="#2B2A33" stroke-width="2"/><circle cx="932" cy="422" r="12" fill="#C8C2B6" stroke="#2B2A33" stroke-width="2"/><circle cx="968" cy="422" r="12" fill="#C4A0D4" stroke="#2B2A33" stroke-width="2"/><circle cx="1004" cy="422" r="12" fill="#8FA88A" stroke="#2B2A33" stroke-width="2"/><circle cx="680" cy="458" r="12" fill="#8FA88A" stroke="#2B2A33" stroke-width="2"/><circle cx="716" cy="458" r="12" fill="#8FA88A" stroke="#2B2A33" stroke-width="2"/><circle cx="752" cy="458" r="12" fill="#8FA88A" stroke="#2B2A33" stroke-width="2"/><circle cx="788" cy="458" r="12" fill="#8FA88A" stroke="#2B2A33" stroke-width="2"/><circle cx="824" cy="458" r="12" fill="#8FA88A" stroke="#2B2A33" stroke-width="2"/><circle cx="860" cy="458" r="12" fill="#8FA88A" stroke="#2B2A33" stroke-width="2"/><circle cx="896" cy="458" r="12" fill="#8FA88A" stroke="#2B2A33" stroke-width="2"/><circle cx="932" cy="458" r="12" fill="#8FA88A" stroke="#2B2A33" stroke-width="2"/><circle cx="968" cy="458" r="12" fill="#8FA88A" stroke="#2B2A33" stroke-width="2"/><circle cx="1004" cy="458" r="12" fill="#8FA88A" stroke="#2B2A33" stroke-width="2"/><circle cx="680" cy="494" r="12" fill="#8FA88A" stroke="#2B2A33" stroke-width="2"/><circle cx="716" cy="494" r="12" fill="#8FA88A" stroke="#2B2A33" stroke-width="2"/><circle cx="752" cy="494" r="12" fill="#8FA88A" stroke="#2B2A33" stroke-width="2"/><circle cx="788" cy="494" r="12" fill="none" stroke="#2B2A33" stroke-width="2" stroke-dasharray="3 3"/><circle cx="824" cy="494" r="12" fill="none" stroke="#2B2A33" stroke-width="2" stroke-dasharray="3 3"/><circle cx="860" cy="494" r="12" fill="none" stroke="#2B2A33" stroke-width="2" stroke-dasharray="3 3"/><circle cx="896" cy="494" r="12" fill="none" stroke="#2B2A33" stroke-width="2" stroke-dasharray="3 3"/><circle cx="932" cy="494" r="12" fill="none" stroke="#2B2A33" stroke-width="2" stroke-dasharray="3 3"/><circle cx="968" cy="494" r="12" fill="none" stroke="#2B2A33" stroke-width="2" stroke-dasharray="3 3"/><circle cx="1004" cy="494" r="12" fill="none" stroke="#2B2A33" stroke-width="2" stroke-dasharray="3 3"/>
  <text x="70" y="560" fill="#2B2A33" font-family="ui-sans-serif, system-ui, sans-serif" font-size="26" text-anchor="start">78 N₂   21 O₂   1 Ar</text>
  <text x="680" y="560" fill="#2B2A33" font-family="ui-sans-serif, system-ui, sans-serif" font-size="26" text-anchor="start">78 N₂   1 Ar   14 CO₂   7 fewer</text>
  <text x="600" y="660" fill="#2B2A33" font-family="Georgia, 'Times New Roman', serif" font-size="32" font-weight="600" text-anchor="middle">2 CH₂ + 3 O₂  →  2 CO₂ + 2 H₂O (liquid)</text>
  <text x="600" y="710" fill="#2B2A33" font-family="ui-sans-serif, system-ui, sans-serif" font-size="26" text-anchor="middle">The flame never gets this far. Most of the oxygen is still there when it goes out.</text>
  <g>
    <circle cx="90" cy="750" r="12" fill="#C8C2B6" stroke="#2B2A33" stroke-width="2"/>
    <text x="110" y="756" fill="#2B2A33" font-family="ui-sans-serif, system-ui, sans-serif" font-size="22" text-anchor="start">N₂</text>
    <circle cx="200" cy="750" r="12" fill="#7EB6D9" stroke="#2B2A33" stroke-width="2"/>
    <text x="220" y="756" fill="#2B2A33" font-family="ui-sans-serif, system-ui, sans-serif" font-size="22" text-anchor="start">O₂</text>
    <circle cx="310" cy="750" r="12" fill="#C4A0D4" stroke="#2B2A33" stroke-width="2"/>
    <text x="330" y="756" fill="#2B2A33" font-family="ui-sans-serif, system-ui, sans-serif" font-size="22" text-anchor="start">Ar</text>
    <circle cx="430" cy="750" r="12" fill="#8FA88A" stroke="#2B2A33" stroke-width="2"/>
    <text x="450" y="756" fill="#2B2A33" font-family="ui-sans-serif, system-ui, sans-serif" font-size="22" text-anchor="start">CO₂</text>
    <circle cx="560" cy="750" r="12" fill="none" stroke="#2B2A33" stroke-width="2" stroke-dasharray="3 3"/>
    <text x="580" y="756" fill="#2B2A33" font-family="ui-sans-serif, system-ui, sans-serif" font-size="22" text-anchor="start">gone from the gas</text>
  </g>

</svg>
